# xmcd CD database file
#
# Track frame offsets:
#	150
#	17616
#	51264
#	65916
#	86432
#	101389
#	125756
#	150312
#	168477
#	195740
#	222632
#	257122
#	283010
#	320991
#
# Disc length: 4549 seconds
#
# Revision: 1
# Processed by: cddbd v1.5.2PL0 Copyright (c) Steve Scherf et al.
# Submitted via: CDex 1.50
#
DISCID=d311c30e
DTITLE=Gayle Tufts - Superwoman
DYEAR=2017
DGENRE=
TTITLE0=Superwoman
TTITLE1=Superhelden
TTITLE2=Shut the fuck up
TTITLE3=Wonder woman
TTITLE4=Hot Potato
TTITLE5=Superfoods
TTITLE6=Fitbit
TTITLE7=Spinning around
TTITLE8=Babystimme
TTITLE9=When we were young
TTITLE10=Superoma
TTITLE11=One day
TTITLE12=Real Helden
TTITLE13=Holding out for a hero
EXTD=YEAR: 2017
EXTT0=
EXTT1=
EXTT2=
EXTT3=
EXTT4=
EXTT5=
EXTT6=
EXTT7=
EXTT8=
EXTT9=
EXTT10=
EXTT11=
EXTT12=
EXTT13=
PLAYORDER=
